M48
;DRILL file {KiCad (5.0.0-3-g5ebb6b6)} date 2018 August 03, Friday 23:44:58
;FORMAT={-:-/ absolute / metric / decimal}
FMAT,2
METRIC,TZ
T1C0.800
T2C1.000
T3C2.200
%
G90
G05
M71
T1
X11.43Y25.4
X11.43Y10.16
X21.59Y29.21
X21.59Y7.62
X24.13Y29.21
X24.13Y22.86
X26.67Y29.21
X26.67Y10.16
X29.21Y39.37
X29.21Y20.32
X3.175Y20.32
X3.175Y10.16
X33.02Y34.29
X33.02Y32.29
X11.43Y39.37
X11.43Y29.21
T2
X7.62Y25.4
X7.62Y22.86
X7.62Y20.32
X7.62Y17.78
X7.62Y15.24
X7.62Y12.7
X7.62Y10.16
X7.62Y7.62
X7.62Y5.08
X16.51Y34.29
X16.51Y31.75
X19.05Y34.29
X19.05Y31.75
X21.59Y34.29
X21.59Y31.75
X24.13Y34.29
X24.13Y31.75
X33.02Y25.4
X33.02Y22.86
X33.02Y20.32
X33.02Y17.78
X33.02Y15.24
X33.02Y12.7
X33.02Y10.16
X33.02Y7.62
X33.02Y5.08
T3
X37.465Y37.465
X3.175Y37.465
X37.465Y3.175
X3.175Y3.175
T0
M30
