G04 #@! TF.GenerationSoftware,KiCad,Pcbnew,(5.0.0-3-g5ebb6b6)*
G04 #@! TF.CreationDate,2018-09-04T20:51:10+02:00*
G04 #@! TF.ProjectId,Brushless_RPM_sensor,42727573686C6573735F52504D5F7365,rev?*
G04 #@! TF.SameCoordinates,PX7445a00PY5faea10*
G04 #@! TF.FileFunction,Copper,L2,Bot,Signal*
G04 #@! TF.FilePolarity,Positive*
%FSLAX46Y46*%
G04 Gerber Fmt 4.6, Leading zero omitted, Abs format (unit mm)*
G04 Created by KiCad (PCBNEW (5.0.0-3-g5ebb6b6)) date 2018 September 04, Tuesday 20:51:10*
%MOMM*%
%LPD*%
G01*
G04 APERTURE LIST*
G04 #@! TA.AperFunction,SMDPad,CuDef*
%ADD10R,1.600000X2.000000*%
G04 #@! TD*
G04 #@! TA.AperFunction,ComponentPad*
%ADD11C,3.500120*%
G04 #@! TD*
G04 #@! TA.AperFunction,ComponentPad*
%ADD12O,1.700000X1.700000*%
G04 #@! TD*
G04 #@! TA.AperFunction,ComponentPad*
%ADD13R,1.700000X1.700000*%
G04 #@! TD*
G04 #@! TA.AperFunction,ComponentPad*
%ADD14O,1.600000X1.600000*%
G04 #@! TD*
G04 #@! TA.AperFunction,ComponentPad*
%ADD15C,1.600000*%
G04 #@! TD*
G04 #@! TA.AperFunction,SMDPad,CuDef*
%ADD16R,1.700000X2.000000*%
G04 #@! TD*
G04 #@! TA.AperFunction,SMDPad,CuDef*
%ADD17R,2.000000X1.700000*%
G04 #@! TD*
G04 #@! TA.AperFunction,ComponentPad*
%ADD18R,1.600000X1.600000*%
G04 #@! TD*
G04 #@! TA.AperFunction,Conductor*
%ADD19C,0.635000*%
G04 #@! TD*
G04 #@! TA.AperFunction,Conductor*
%ADD20C,0.200000*%
G04 #@! TD*
G04 APERTURE END LIST*
D10*
G04 #@! TO.P,C1,2*
G04 #@! TO.N,GND*
X22860000Y5620000D03*
G04 #@! TO.P,C1,1*
G04 #@! TO.N,Net-(C1-Pad1)*
X22860000Y9620000D03*
G04 #@! TD*
D11*
G04 #@! TO.P,J1,1*
G04 #@! TO.N,Net-(J1-Pad1)*
X5080000Y16510000D03*
G04 #@! TD*
G04 #@! TO.P,J2,1*
G04 #@! TO.N,Net-(J2-Pad1)*
X5080000Y3810000D03*
G04 #@! TD*
D12*
G04 #@! TO.P,J3,3*
G04 #@! TO.N,+5V*
X35560000Y6350000D03*
G04 #@! TO.P,J3,2*
G04 #@! TO.N,GND*
X35560000Y8890000D03*
D13*
G04 #@! TO.P,J3,1*
G04 #@! TO.N,RPM*
X35560000Y11430000D03*
G04 #@! TD*
D14*
G04 #@! TO.P,R1,2*
G04 #@! TO.N,Net-(R1-Pad2)*
X12700000Y10160000D03*
D15*
G04 #@! TO.P,R1,1*
G04 #@! TO.N,Net-(J1-Pad1)*
X2540000Y10160000D03*
G04 #@! TD*
D16*
G04 #@! TO.P,R2,1*
G04 #@! TO.N,+5V*
X15240000Y17240000D03*
G04 #@! TO.P,R2,2*
G04 #@! TO.N,Net-(R2-Pad2)*
X15240000Y13240000D03*
G04 #@! TD*
G04 #@! TO.P,R3,2*
G04 #@! TO.N,GND*
X15240000Y3080000D03*
G04 #@! TO.P,R3,1*
G04 #@! TO.N,Net-(R2-Pad2)*
X15240000Y7080000D03*
G04 #@! TD*
G04 #@! TO.P,R4,1*
G04 #@! TO.N,Net-(C1-Pad1)*
X17780000Y8160000D03*
G04 #@! TO.P,R4,2*
G04 #@! TO.N,Net-(R2-Pad2)*
X17780000Y12160000D03*
G04 #@! TD*
G04 #@! TO.P,R5,2*
G04 #@! TO.N,Net-(R5-Pad2)*
X25400000Y9430000D03*
G04 #@! TO.P,R5,1*
G04 #@! TO.N,Net-(R5-Pad1)*
X25400000Y13430000D03*
G04 #@! TD*
D17*
G04 #@! TO.P,R6,2*
G04 #@! TO.N,Net-(R6-Pad2)*
X31655000Y3175000D03*
G04 #@! TO.P,R6,1*
G04 #@! TO.N,+5V*
X35655000Y3175000D03*
G04 #@! TD*
G04 #@! TO.P,R7,1*
G04 #@! TO.N,Net-(R6-Pad2)*
X27400000Y2540000D03*
G04 #@! TO.P,R7,2*
G04 #@! TO.N,GND*
X23400000Y2540000D03*
G04 #@! TD*
D16*
G04 #@! TO.P,R8,2*
G04 #@! TO.N,Net-(R5-Pad2)*
X30480000Y6890000D03*
G04 #@! TO.P,R8,1*
G04 #@! TO.N,Net-(R8-Pad1)*
X30480000Y10890000D03*
G04 #@! TD*
D17*
G04 #@! TO.P,R9,1*
G04 #@! TO.N,Net-(R8-Pad1)*
X31020000Y13970000D03*
G04 #@! TO.P,R9,2*
G04 #@! TO.N,RPM*
X35020000Y13970000D03*
G04 #@! TD*
D14*
G04 #@! TO.P,U3,8*
G04 #@! TO.N,+5V*
X27940000Y13970000D03*
G04 #@! TO.P,U3,4*
G04 #@! TO.N,GND*
X20320000Y6350000D03*
G04 #@! TO.P,U3,7*
G04 #@! TO.N,Net-(R8-Pad1)*
X27940000Y11430000D03*
G04 #@! TO.P,U3,3*
G04 #@! TO.N,Net-(C1-Pad1)*
X20320000Y8890000D03*
G04 #@! TO.P,U3,6*
G04 #@! TO.N,Net-(R6-Pad2)*
X27940000Y8890000D03*
G04 #@! TO.P,U3,2*
G04 #@! TO.N,Net-(R5-Pad1)*
X20320000Y11430000D03*
G04 #@! TO.P,U3,5*
G04 #@! TO.N,Net-(R5-Pad2)*
X27940000Y6350000D03*
D18*
G04 #@! TO.P,U3,1*
G04 #@! TO.N,Net-(R5-Pad1)*
X20320000Y13970000D03*
G04 #@! TD*
D14*
G04 #@! TO.P,U1,4*
G04 #@! TO.N,+5V*
X17780000Y17780000D03*
G04 #@! TO.P,U1,2*
G04 #@! TO.N,Net-(J2-Pad1)*
X10160000Y15240000D03*
G04 #@! TO.P,U1,3*
G04 #@! TO.N,Net-(R2-Pad2)*
X17780000Y15240000D03*
D18*
G04 #@! TO.P,U1,1*
G04 #@! TO.N,Net-(R1-Pad2)*
X10160000Y17780000D03*
G04 #@! TD*
G04 #@! TO.P,U2,1*
G04 #@! TO.N,Net-(J2-Pad1)*
X10160000Y5080000D03*
D14*
G04 #@! TO.P,U2,3*
G04 #@! TO.N,GND*
X17780000Y2540000D03*
G04 #@! TO.P,U2,2*
G04 #@! TO.N,Net-(R1-Pad2)*
X10160000Y2540000D03*
G04 #@! TO.P,U2,4*
G04 #@! TO.N,Net-(R2-Pad2)*
X17780000Y5080000D03*
G04 #@! TD*
D19*
G04 #@! TO.N,Net-(C1-Pad1)*
X20320000Y8890000D02*
X22130000Y8890000D01*
X22130000Y8890000D02*
X22860000Y9620000D01*
X20320000Y8890000D02*
X18510000Y8890000D01*
X18510000Y8890000D02*
X17780000Y8160000D01*
G04 #@! TO.N,Net-(J1-Pad1)*
X2540000Y10160000D02*
X2540000Y13970000D01*
X2540000Y13970000D02*
X5080000Y16510000D01*
G04 #@! TO.N,Net-(J2-Pad1)*
X10160000Y5080000D02*
X6350000Y5080000D01*
X6350000Y5080000D02*
X5080000Y3810000D01*
X10160000Y15240000D02*
X10160000Y5080000D01*
G04 #@! TO.N,+5V*
X17780000Y17780000D02*
X15780000Y17780000D01*
X15780000Y17780000D02*
X15240000Y17240000D01*
X35655000Y3175000D02*
X35655000Y6255000D01*
X35655000Y6255000D02*
X35560000Y6350000D01*
X35560000Y6350000D02*
X36830000Y6350000D01*
X34925000Y17780000D02*
X27940000Y17780000D01*
X27940000Y17780000D02*
X17780000Y17780000D01*
X36830000Y6350000D02*
X37465000Y6985000D01*
X37465000Y6985000D02*
X37465000Y15240000D01*
X37465000Y15240000D02*
X34925000Y17780000D01*
X27940000Y13970000D02*
X27940000Y17780000D01*
G04 #@! TO.N,RPM*
X35560000Y11430000D02*
X35560000Y13430000D01*
X35560000Y13430000D02*
X35020000Y13970000D01*
G04 #@! TO.N,Net-(R1-Pad2)*
X12700000Y10160000D02*
X12700000Y3810000D01*
X11430000Y2540000D02*
X10160000Y2540000D01*
X12700000Y3810000D02*
X11430000Y2540000D01*
X10160000Y17780000D02*
X11430000Y17780000D01*
X12700000Y16510000D02*
X12700000Y10160000D01*
X11430000Y17780000D02*
X12700000Y16510000D01*
G04 #@! TO.N,Net-(R2-Pad2)*
X15780000Y7620000D02*
X15240000Y7080000D01*
X17240000Y12700000D02*
X17780000Y12160000D01*
X17780000Y15240000D02*
X17780000Y12160000D01*
X17780000Y5080000D02*
X17240000Y5080000D01*
X17240000Y5080000D02*
X15240000Y7080000D01*
X15240000Y7080000D02*
X15240000Y13240000D01*
X17780000Y12160000D02*
X15240000Y12160000D01*
X15240000Y12700000D02*
X15240000Y13240000D01*
X15240000Y12160000D02*
X15240000Y12700000D01*
G04 #@! TO.N,Net-(R5-Pad2)*
X27940000Y6350000D02*
X26670000Y6350000D01*
X25400000Y7620000D02*
X25400000Y9430000D01*
X26670000Y6350000D02*
X25400000Y7620000D01*
X27940000Y6350000D02*
X29940000Y6350000D01*
X29940000Y6350000D02*
X30480000Y6890000D01*
G04 #@! TO.N,Net-(R5-Pad1)*
X20320000Y13970000D02*
X20320000Y11430000D01*
X20320000Y13970000D02*
X24860000Y13970000D01*
X24860000Y13970000D02*
X25400000Y13430000D01*
G04 #@! TO.N,Net-(R6-Pad2)*
X27940000Y8890000D02*
X31750000Y8890000D01*
X32385000Y8255000D02*
X32385000Y3905000D01*
X31750000Y8890000D02*
X32385000Y8255000D01*
X32385000Y3905000D02*
X31655000Y3175000D01*
X31655000Y3175000D02*
X28035000Y3175000D01*
X28035000Y3175000D02*
X27400000Y2540000D01*
G04 #@! TO.N,Net-(R8-Pad1)*
X27940000Y11430000D02*
X29940000Y11430000D01*
X29940000Y11430000D02*
X30480000Y10890000D01*
X30385000Y10985000D02*
X30480000Y10890000D01*
X30480000Y10890000D02*
X30480000Y13430000D01*
X30480000Y13430000D02*
X31020000Y13970000D01*
G04 #@! TD*
D20*
G04 #@! TO.N,GND*
G36*
X38895000Y17583248D02*
X38895001Y2736753D01*
X36633250Y475000D01*
X14070000Y475000D01*
X14070000Y1834314D01*
X14163418Y1740896D01*
X14310435Y1680000D01*
X14715000Y1680000D01*
X14815000Y1780000D01*
X14815000Y2580000D01*
X15665000Y2580000D01*
X15665000Y1780000D01*
X15765000Y1680000D01*
X16169565Y1680000D01*
X16316582Y1740896D01*
X16429104Y1853418D01*
X16476539Y1967939D01*
X16725132Y1967939D01*
X16847783Y1784313D01*
X17207933Y1485092D01*
X17380000Y1508589D01*
X17380000Y2140000D01*
X18180000Y2140000D01*
X18180000Y1508589D01*
X18352067Y1485092D01*
X18712217Y1784313D01*
X18834868Y1967939D01*
X18826616Y2015000D01*
X22000000Y2015000D01*
X22000000Y1610435D01*
X22060896Y1463418D01*
X22173418Y1350896D01*
X22320435Y1290000D01*
X22800000Y1290000D01*
X22900000Y1390000D01*
X22900000Y2115000D01*
X23900000Y2115000D01*
X23900000Y1390000D01*
X24000000Y1290000D01*
X24479565Y1290000D01*
X24626582Y1350896D01*
X24739104Y1463418D01*
X24800000Y1610435D01*
X24800000Y2015000D01*
X24700000Y2115000D01*
X23900000Y2115000D01*
X22900000Y2115000D01*
X22100000Y2115000D01*
X22000000Y2015000D01*
X18826616Y2015000D01*
X18804695Y2140000D01*
X18180000Y2140000D01*
X17380000Y2140000D01*
X16755305Y2140000D01*
X16725132Y1967939D01*
X16476539Y1967939D01*
X16490000Y2000435D01*
X16490000Y2480000D01*
X16390000Y2580000D01*
X15665000Y2580000D01*
X14815000Y2580000D01*
X14685000Y2580000D01*
X14685000Y3112061D01*
X16725132Y3112061D01*
X16755305Y2940000D01*
X17380000Y2940000D01*
X17380000Y3571411D01*
X18180000Y3571411D01*
X18180000Y2940000D01*
X18804695Y2940000D01*
X18834868Y3112061D01*
X18712217Y3295687D01*
X18502934Y3469565D01*
X22000000Y3469565D01*
X22000000Y3065000D01*
X22100000Y2965000D01*
X22900000Y2965000D01*
X22900000Y3690000D01*
X23900000Y3690000D01*
X23900000Y2965000D01*
X24700000Y2965000D01*
X24800000Y3065000D01*
X24800000Y3469565D01*
X24739104Y3616582D01*
X24626582Y3729104D01*
X24479565Y3790000D01*
X24000000Y3790000D01*
X23900000Y3690000D01*
X22900000Y3690000D01*
X22800000Y3790000D01*
X22320435Y3790000D01*
X22173418Y3729104D01*
X22060896Y3616582D01*
X22000000Y3469565D01*
X18502934Y3469565D01*
X18352067Y3594908D01*
X18180000Y3571411D01*
X17380000Y3571411D01*
X17207933Y3594908D01*
X16847783Y3295687D01*
X16725132Y3112061D01*
X14685000Y3112061D01*
X14685000Y3580000D01*
X14815000Y3580000D01*
X14815000Y4380000D01*
X15665000Y4380000D01*
X15665000Y3580000D01*
X16390000Y3580000D01*
X16490000Y3680000D01*
X16490000Y4159565D01*
X16429104Y4306582D01*
X16316582Y4419104D01*
X16169565Y4480000D01*
X15765000Y4480000D01*
X15665000Y4380000D01*
X14815000Y4380000D01*
X14715000Y4480000D01*
X14310435Y4480000D01*
X14163418Y4419104D01*
X14070000Y4325686D01*
X14070000Y5838933D01*
X14101616Y5791616D01*
X14233928Y5703209D01*
X14390000Y5672164D01*
X15633139Y5672164D01*
X16638726Y4666576D01*
X16649625Y4611783D01*
X16914848Y4214848D01*
X17311783Y3949625D01*
X17661812Y3880000D01*
X17898188Y3880000D01*
X18248217Y3949625D01*
X18645152Y4214848D01*
X18910375Y4611783D01*
X18991574Y5020000D01*
X21660000Y5020000D01*
X21660000Y4540435D01*
X21720896Y4393418D01*
X21833418Y4280896D01*
X21980435Y4220000D01*
X22360000Y4220000D01*
X22460000Y4320000D01*
X22460000Y5120000D01*
X23260000Y5120000D01*
X23260000Y4320000D01*
X23360000Y4220000D01*
X23739565Y4220000D01*
X23886582Y4280896D01*
X23999104Y4393418D01*
X24060000Y4540435D01*
X24060000Y5020000D01*
X23960000Y5120000D01*
X23260000Y5120000D01*
X22460000Y5120000D01*
X21760000Y5120000D01*
X21660000Y5020000D01*
X18991574Y5020000D01*
X19003509Y5080000D01*
X18910375Y5548217D01*
X18756880Y5777939D01*
X19265132Y5777939D01*
X19387783Y5594313D01*
X19747933Y5295092D01*
X19920000Y5318589D01*
X19920000Y5950000D01*
X20720000Y5950000D01*
X20720000Y5318589D01*
X20892067Y5295092D01*
X21252217Y5594313D01*
X21374868Y5777939D01*
X21344695Y5950000D01*
X20720000Y5950000D01*
X19920000Y5950000D01*
X19295305Y5950000D01*
X19265132Y5777939D01*
X18756880Y5777939D01*
X18645152Y5945152D01*
X18248217Y6210375D01*
X17898188Y6280000D01*
X17661812Y6280000D01*
X17311783Y6210375D01*
X17199409Y6135289D01*
X16635133Y6699565D01*
X21660000Y6699565D01*
X21660000Y6220000D01*
X21760000Y6120000D01*
X22460000Y6120000D01*
X22460000Y6920000D01*
X23260000Y6920000D01*
X23260000Y6120000D01*
X23960000Y6120000D01*
X24060000Y6220000D01*
X24060000Y6699565D01*
X23999104Y6846582D01*
X23886582Y6959104D01*
X23739565Y7020000D01*
X23360000Y7020000D01*
X23260000Y6920000D01*
X22460000Y6920000D01*
X22360000Y7020000D01*
X21980435Y7020000D01*
X21833418Y6959104D01*
X21720896Y6846582D01*
X21660000Y6699565D01*
X16635133Y6699565D01*
X16497836Y6836861D01*
X16497836Y7551028D01*
X16511555Y7619999D01*
X16497836Y7688970D01*
X16497836Y8080000D01*
X16466791Y8236072D01*
X16378384Y8368384D01*
X16246072Y8456791D01*
X16090000Y8487836D01*
X15957500Y8487836D01*
X15957500Y9160000D01*
X16522164Y9160000D01*
X16522164Y7160000D01*
X16553209Y7003928D01*
X16641616Y6871616D01*
X16773928Y6783209D01*
X16930000Y6752164D01*
X18630000Y6752164D01*
X18786072Y6783209D01*
X18918384Y6871616D01*
X18952089Y6922061D01*
X19265132Y6922061D01*
X19295305Y6750000D01*
X19920000Y6750000D01*
X19920000Y7381411D01*
X20720000Y7381411D01*
X20720000Y6750000D01*
X21344695Y6750000D01*
X21374868Y6922061D01*
X21252217Y7105687D01*
X20892067Y7404908D01*
X20720000Y7381411D01*
X19920000Y7381411D01*
X19747933Y7404908D01*
X19387783Y7105687D01*
X19265132Y6922061D01*
X18952089Y6922061D01*
X19006791Y7003928D01*
X19037836Y7160000D01*
X19037836Y8172500D01*
X19356190Y8172500D01*
X19454848Y8024848D01*
X19851783Y7759625D01*
X20201812Y7690000D01*
X20438188Y7690000D01*
X20788217Y7759625D01*
X21185152Y8024848D01*
X21283810Y8172500D01*
X22059340Y8172500D01*
X22130000Y8158445D01*
X22200660Y8172500D01*
X22200665Y8172500D01*
X22400070Y8212164D01*
X23660000Y8212164D01*
X23816072Y8243209D01*
X23948384Y8331616D01*
X24036791Y8463928D01*
X24067836Y8620000D01*
X24067836Y10430000D01*
X24142164Y10430000D01*
X24142164Y8430000D01*
X24173209Y8273928D01*
X24261616Y8141616D01*
X24393928Y8053209D01*
X24550000Y8022164D01*
X24682500Y8022164D01*
X24682500Y7690660D01*
X24668445Y7620000D01*
X24682500Y7549340D01*
X24682500Y7549336D01*
X24724130Y7340047D01*
X24882712Y7102713D01*
X24942619Y7062684D01*
X26112683Y5892619D01*
X26152712Y5832712D01*
X26212618Y5792684D01*
X26390044Y5674131D01*
X26390045Y5674131D01*
X26390046Y5674130D01*
X26599335Y5632500D01*
X26599339Y5632500D01*
X26669999Y5618445D01*
X26740659Y5632500D01*
X26976190Y5632500D01*
X27074848Y5484848D01*
X27471783Y5219625D01*
X27821812Y5150000D01*
X28058188Y5150000D01*
X28408217Y5219625D01*
X28805152Y5484848D01*
X28903810Y5632500D01*
X29320980Y5632500D01*
X29341616Y5601616D01*
X29473928Y5513209D01*
X29630000Y5482164D01*
X31330000Y5482164D01*
X31486072Y5513209D01*
X31618384Y5601616D01*
X31667501Y5675125D01*
X31667501Y4432836D01*
X30655000Y4432836D01*
X30498928Y4401791D01*
X30366616Y4313384D01*
X30278209Y4181072D01*
X30247164Y4025000D01*
X30247164Y3892500D01*
X28105660Y3892500D01*
X28035000Y3906555D01*
X27964340Y3892500D01*
X27964335Y3892500D01*
X27755046Y3850870D01*
X27755044Y3850869D01*
X27755045Y3850869D01*
X27675675Y3797836D01*
X26400000Y3797836D01*
X26243928Y3766791D01*
X26111616Y3678384D01*
X26023209Y3546072D01*
X25992164Y3390000D01*
X25992164Y1690000D01*
X26023209Y1533928D01*
X26111616Y1401616D01*
X26243928Y1313209D01*
X26400000Y1282164D01*
X28400000Y1282164D01*
X28556072Y1313209D01*
X28688384Y1401616D01*
X28776791Y1533928D01*
X28807836Y1690000D01*
X28807836Y2457500D01*
X30247164Y2457500D01*
X30247164Y2325000D01*
X30278209Y2168928D01*
X30366616Y2036616D01*
X30498928Y1948209D01*
X30655000Y1917164D01*
X32655000Y1917164D01*
X32811072Y1948209D01*
X32943384Y2036616D01*
X33031791Y2168928D01*
X33062836Y2325000D01*
X33062836Y3634930D01*
X33102500Y3834335D01*
X33102500Y3834340D01*
X33116555Y3905000D01*
X33102500Y3975660D01*
X33102500Y8184340D01*
X33116555Y8255000D01*
X33110322Y8286339D01*
X34465425Y8286339D01*
X34583393Y8109722D01*
X34956332Y7795386D01*
X35135000Y7814428D01*
X35135000Y8465000D01*
X34491414Y8465000D01*
X34465425Y8286339D01*
X33110322Y8286339D01*
X33102500Y8325660D01*
X33102500Y8325665D01*
X33060870Y8534954D01*
X33041642Y8563730D01*
X32942317Y8712382D01*
X32942312Y8712387D01*
X32902287Y8772288D01*
X32842386Y8812313D01*
X32307318Y9347380D01*
X32267288Y9407288D01*
X32138023Y9493661D01*
X34465425Y9493661D01*
X34491414Y9315000D01*
X35135000Y9315000D01*
X35135000Y9965572D01*
X34956332Y9984614D01*
X34583393Y9670278D01*
X34465425Y9493661D01*
X32138023Y9493661D01*
X32029954Y9565870D01*
X31820665Y9607500D01*
X31820660Y9607500D01*
X31750000Y9621555D01*
X31679340Y9607500D01*
X31622316Y9607500D01*
X31706791Y9733928D01*
X31737836Y9890000D01*
X31737836Y11890000D01*
X31706791Y12046072D01*
X31618384Y12178384D01*
X31486072Y12266791D01*
X31330000Y12297836D01*
X31197500Y12297836D01*
X31197500Y12712164D01*
X32020000Y12712164D01*
X32176072Y12743209D01*
X32308384Y12831616D01*
X32396791Y12963928D01*
X32427836Y13120000D01*
X32427836Y14820000D01*
X32396791Y14976072D01*
X32308384Y15108384D01*
X32176072Y15196791D01*
X32020000Y15227836D01*
X30020000Y15227836D01*
X29863928Y15196791D01*
X29731616Y15108384D01*
X29643209Y14976072D01*
X29612164Y14820000D01*
X29612164Y13120000D01*
X29643209Y12963928D01*
X29731616Y12831616D01*
X29762501Y12810980D01*
X29762501Y12297836D01*
X29630000Y12297836D01*
X29473928Y12266791D01*
X29341616Y12178384D01*
X29320980Y12147500D01*
X28903810Y12147500D01*
X28805152Y12295152D01*
X28408217Y12560375D01*
X28058188Y12630000D01*
X27821812Y12630000D01*
X27471783Y12560375D01*
X27074848Y12295152D01*
X26809625Y11898217D01*
X26716491Y11430000D01*
X26809625Y10961783D01*
X27074848Y10564848D01*
X27471783Y10299625D01*
X27821812Y10230000D01*
X28058188Y10230000D01*
X28408217Y10299625D01*
X28805152Y10564848D01*
X28903810Y10712500D01*
X29222164Y10712500D01*
X29222164Y9890000D01*
X29253209Y9733928D01*
X29337684Y9607500D01*
X28903810Y9607500D01*
X28805152Y9755152D01*
X28408217Y10020375D01*
X28058188Y10090000D01*
X27821812Y10090000D01*
X27471783Y10020375D01*
X27074848Y9755152D01*
X26809625Y9358217D01*
X26716491Y8890000D01*
X26809625Y8421783D01*
X27074848Y8024848D01*
X27471783Y7759625D01*
X27821812Y7690000D01*
X28058188Y7690000D01*
X28408217Y7759625D01*
X28805152Y8024848D01*
X28903810Y8172500D01*
X29337684Y8172500D01*
X29253209Y8046072D01*
X29222164Y7890000D01*
X29222164Y7067500D01*
X28903810Y7067500D01*
X28805152Y7215152D01*
X28408217Y7480375D01*
X28058188Y7550000D01*
X27821812Y7550000D01*
X27471783Y7480375D01*
X27074848Y7215152D01*
X26976190Y7067500D01*
X26967198Y7067500D01*
X26117500Y7917197D01*
X26117500Y8022164D01*
X26250000Y8022164D01*
X26406072Y8053209D01*
X26538384Y8141616D01*
X26626791Y8273928D01*
X26657836Y8430000D01*
X26657836Y10430000D01*
X26626791Y10586072D01*
X26538384Y10718384D01*
X26406072Y10806791D01*
X26250000Y10837836D01*
X24550000Y10837836D01*
X24393928Y10806791D01*
X24261616Y10718384D01*
X24173209Y10586072D01*
X24142164Y10430000D01*
X24067836Y10430000D01*
X24067836Y10620000D01*
X24036791Y10776072D01*
X23948384Y10908384D01*
X23816072Y10996791D01*
X23660000Y11027836D01*
X22060000Y11027836D01*
X21903928Y10996791D01*
X21771616Y10908384D01*
X21683209Y10776072D01*
X21652164Y10620000D01*
X21652164Y9607500D01*
X21283810Y9607500D01*
X21185152Y9755152D01*
X20788217Y10020375D01*
X20438188Y10090000D01*
X20201812Y10090000D01*
X19851783Y10020375D01*
X19454848Y9755152D01*
X19356190Y9607500D01*
X18580660Y9607500D01*
X18510000Y9621555D01*
X18439340Y9607500D01*
X18439335Y9607500D01*
X18239930Y9567836D01*
X16930000Y9567836D01*
X16773928Y9536791D01*
X16641616Y9448384D01*
X16553209Y9316072D01*
X16522164Y9160000D01*
X15957500Y9160000D01*
X15957500Y11442500D01*
X16522164Y11442500D01*
X16522164Y11160000D01*
X16553209Y11003928D01*
X16641616Y10871616D01*
X16773928Y10783209D01*
X16930000Y10752164D01*
X18630000Y10752164D01*
X18786072Y10783209D01*
X18918384Y10871616D01*
X19006791Y11003928D01*
X19037836Y11160000D01*
X19037836Y11430000D01*
X19096491Y11430000D01*
X19189625Y10961783D01*
X19454848Y10564848D01*
X19851783Y10299625D01*
X20201812Y10230000D01*
X20438188Y10230000D01*
X20788217Y10299625D01*
X21185152Y10564848D01*
X21450375Y10961783D01*
X21543509Y11430000D01*
X21450375Y11898217D01*
X21185152Y12295152D01*
X21037500Y12393810D01*
X21037500Y12762164D01*
X21120000Y12762164D01*
X21276072Y12793209D01*
X21408384Y12881616D01*
X21496791Y13013928D01*
X21527836Y13170000D01*
X21527836Y13252500D01*
X24142164Y13252500D01*
X24142164Y12430000D01*
X24173209Y12273928D01*
X24261616Y12141616D01*
X24393928Y12053209D01*
X24550000Y12022164D01*
X26250000Y12022164D01*
X26406072Y12053209D01*
X26538384Y12141616D01*
X26626791Y12273928D01*
X26657836Y12430000D01*
X26657836Y14430000D01*
X26626791Y14586072D01*
X26538384Y14718384D01*
X26406072Y14806791D01*
X26250000Y14837836D01*
X24550000Y14837836D01*
X24393928Y14806791D01*
X24261616Y14718384D01*
X24240980Y14687500D01*
X21527836Y14687500D01*
X21527836Y14770000D01*
X21496791Y14926072D01*
X21408384Y15058384D01*
X21276072Y15146791D01*
X21120000Y15177836D01*
X19520000Y15177836D01*
X19363928Y15146791D01*
X19231616Y15058384D01*
X19143209Y14926072D01*
X19112164Y14770000D01*
X19112164Y13170000D01*
X19143209Y13013928D01*
X19231616Y12881616D01*
X19363928Y12793209D01*
X19520000Y12762164D01*
X19602500Y12762164D01*
X19602501Y12393810D01*
X19454848Y12295152D01*
X19189625Y11898217D01*
X19096491Y11430000D01*
X19037836Y11430000D01*
X19037836Y13160000D01*
X19006791Y13316072D01*
X18918384Y13448384D01*
X18786072Y13536791D01*
X18630000Y13567836D01*
X18497500Y13567836D01*
X18497500Y14276190D01*
X18645152Y14374848D01*
X18910375Y14771783D01*
X19003509Y15240000D01*
X18910375Y15708217D01*
X18645152Y16105152D01*
X18248217Y16370375D01*
X17898188Y16440000D01*
X17661812Y16440000D01*
X17311783Y16370375D01*
X16914848Y16105152D01*
X16649625Y15708217D01*
X16556491Y15240000D01*
X16649625Y14771783D01*
X16914848Y14374848D01*
X17062500Y14276190D01*
X17062501Y13567836D01*
X16930000Y13567836D01*
X16773928Y13536791D01*
X16641616Y13448384D01*
X16553209Y13316072D01*
X16522164Y13160000D01*
X16522164Y12877500D01*
X16497836Y12877500D01*
X16497836Y14240000D01*
X16466791Y14396072D01*
X16378384Y14528384D01*
X16246072Y14616791D01*
X16090000Y14647836D01*
X14390000Y14647836D01*
X14233928Y14616791D01*
X14101616Y14528384D01*
X14070000Y14481067D01*
X14070000Y15998933D01*
X14101616Y15951616D01*
X14233928Y15863209D01*
X14390000Y15832164D01*
X16090000Y15832164D01*
X16246072Y15863209D01*
X16378384Y15951616D01*
X16466791Y16083928D01*
X16497836Y16240000D01*
X16497836Y17062500D01*
X16816190Y17062500D01*
X16914848Y16914848D01*
X17311783Y16649625D01*
X17661812Y16580000D01*
X17898188Y16580000D01*
X18248217Y16649625D01*
X18645152Y16914848D01*
X18743810Y17062500D01*
X27222501Y17062500D01*
X27222500Y14933810D01*
X27074848Y14835152D01*
X26809625Y14438217D01*
X26716491Y13970000D01*
X26809625Y13501783D01*
X27074848Y13104848D01*
X27471783Y12839625D01*
X27821812Y12770000D01*
X28058188Y12770000D01*
X28408217Y12839625D01*
X28805152Y13104848D01*
X29070375Y13501783D01*
X29163509Y13970000D01*
X29070375Y14438217D01*
X28805152Y14835152D01*
X28657500Y14933810D01*
X28657500Y17062500D01*
X34627803Y17062500D01*
X36747501Y14942801D01*
X36747501Y12494875D01*
X36698384Y12568384D01*
X36566072Y12656791D01*
X36410000Y12687836D01*
X36277500Y12687836D01*
X36277500Y12810980D01*
X36308384Y12831616D01*
X36396791Y12963928D01*
X36427836Y13120000D01*
X36427836Y14820000D01*
X36396791Y14976072D01*
X36308384Y15108384D01*
X36176072Y15196791D01*
X36020000Y15227836D01*
X34020000Y15227836D01*
X33863928Y15196791D01*
X33731616Y15108384D01*
X33643209Y14976072D01*
X33612164Y14820000D01*
X33612164Y13120000D01*
X33643209Y12963928D01*
X33731616Y12831616D01*
X33863928Y12743209D01*
X34020000Y12712164D01*
X34842501Y12712164D01*
X34842501Y12687836D01*
X34710000Y12687836D01*
X34553928Y12656791D01*
X34421616Y12568384D01*
X34333209Y12436072D01*
X34302164Y12280000D01*
X34302164Y10580000D01*
X34333209Y10423928D01*
X34421616Y10291616D01*
X34553928Y10203209D01*
X34710000Y10172164D01*
X36410000Y10172164D01*
X36566072Y10203209D01*
X36698384Y10291616D01*
X36747500Y10365125D01*
X36747500Y9425002D01*
X36644587Y9425002D01*
X36654575Y9493661D01*
X36536607Y9670278D01*
X36163668Y9984614D01*
X35985000Y9965572D01*
X35985000Y9315000D01*
X36115000Y9315000D01*
X36115000Y8465000D01*
X35985000Y8465000D01*
X35985000Y7814428D01*
X36163668Y7795386D01*
X36536607Y8109722D01*
X36654575Y8286339D01*
X36644587Y8354998D01*
X36747500Y8354998D01*
X36747500Y7282198D01*
X36563459Y7098156D01*
X36461199Y7251199D01*
X36047725Y7527473D01*
X35683109Y7600000D01*
X35436891Y7600000D01*
X35072275Y7527473D01*
X34658801Y7251199D01*
X34382527Y6837725D01*
X34285512Y6350000D01*
X34382527Y5862275D01*
X34658801Y5448801D01*
X34937501Y5262580D01*
X34937500Y4432836D01*
X34655000Y4432836D01*
X34498928Y4401791D01*
X34366616Y4313384D01*
X34278209Y4181072D01*
X34247164Y4025000D01*
X34247164Y2325000D01*
X34278209Y2168928D01*
X34366616Y2036616D01*
X34498928Y1948209D01*
X34655000Y1917164D01*
X36655000Y1917164D01*
X36811072Y1948209D01*
X36943384Y2036616D01*
X37031791Y2168928D01*
X37062836Y2325000D01*
X37062836Y4025000D01*
X37031791Y4181072D01*
X36943384Y4313384D01*
X36811072Y4401791D01*
X36655000Y4432836D01*
X36372500Y4432836D01*
X36372500Y5389534D01*
X36461199Y5448801D01*
X36583943Y5632500D01*
X36759340Y5632500D01*
X36830000Y5618445D01*
X36900660Y5632500D01*
X36900665Y5632500D01*
X37109954Y5674130D01*
X37347288Y5832712D01*
X37387318Y5892620D01*
X37922386Y6427687D01*
X37982287Y6467712D01*
X38022312Y6527613D01*
X38022317Y6527618D01*
X38121642Y6676270D01*
X38140870Y6705046D01*
X38182500Y6914335D01*
X38182500Y6914340D01*
X38196555Y6985000D01*
X38182500Y7055660D01*
X38182500Y15169341D01*
X38196555Y15240001D01*
X38182500Y15310661D01*
X38182500Y15310665D01*
X38140870Y15519954D01*
X37982288Y15757288D01*
X37922382Y15797316D01*
X35482318Y18237379D01*
X35442288Y18297288D01*
X35204954Y18455870D01*
X34995665Y18497500D01*
X34995660Y18497500D01*
X34925000Y18511555D01*
X34854340Y18497500D01*
X28010665Y18497500D01*
X27940000Y18511556D01*
X27869336Y18497500D01*
X18743810Y18497500D01*
X18645152Y18645152D01*
X18248217Y18910375D01*
X17898188Y18980000D01*
X17661812Y18980000D01*
X17311783Y18910375D01*
X16914848Y18645152D01*
X16816190Y18497500D01*
X16399020Y18497500D01*
X16378384Y18528384D01*
X16246072Y18616791D01*
X16090000Y18647836D01*
X14390000Y18647836D01*
X14233928Y18616791D01*
X14101616Y18528384D01*
X14070000Y18481067D01*
X14070000Y19845000D01*
X36633250Y19845000D01*
X38895000Y17583248D01*
X38895000Y17583248D01*
G37*
X38895000Y17583248D02*
X38895001Y2736753D01*
X36633250Y475000D01*
X14070000Y475000D01*
X14070000Y1834314D01*
X14163418Y1740896D01*
X14310435Y1680000D01*
X14715000Y1680000D01*
X14815000Y1780000D01*
X14815000Y2580000D01*
X15665000Y2580000D01*
X15665000Y1780000D01*
X15765000Y1680000D01*
X16169565Y1680000D01*
X16316582Y1740896D01*
X16429104Y1853418D01*
X16476539Y1967939D01*
X16725132Y1967939D01*
X16847783Y1784313D01*
X17207933Y1485092D01*
X17380000Y1508589D01*
X17380000Y2140000D01*
X18180000Y2140000D01*
X18180000Y1508589D01*
X18352067Y1485092D01*
X18712217Y1784313D01*
X18834868Y1967939D01*
X18826616Y2015000D01*
X22000000Y2015000D01*
X22000000Y1610435D01*
X22060896Y1463418D01*
X22173418Y1350896D01*
X22320435Y1290000D01*
X22800000Y1290000D01*
X22900000Y1390000D01*
X22900000Y2115000D01*
X23900000Y2115000D01*
X23900000Y1390000D01*
X24000000Y1290000D01*
X24479565Y1290000D01*
X24626582Y1350896D01*
X24739104Y1463418D01*
X24800000Y1610435D01*
X24800000Y2015000D01*
X24700000Y2115000D01*
X23900000Y2115000D01*
X22900000Y2115000D01*
X22100000Y2115000D01*
X22000000Y2015000D01*
X18826616Y2015000D01*
X18804695Y2140000D01*
X18180000Y2140000D01*
X17380000Y2140000D01*
X16755305Y2140000D01*
X16725132Y1967939D01*
X16476539Y1967939D01*
X16490000Y2000435D01*
X16490000Y2480000D01*
X16390000Y2580000D01*
X15665000Y2580000D01*
X14815000Y2580000D01*
X14685000Y2580000D01*
X14685000Y3112061D01*
X16725132Y3112061D01*
X16755305Y2940000D01*
X17380000Y2940000D01*
X17380000Y3571411D01*
X18180000Y3571411D01*
X18180000Y2940000D01*
X18804695Y2940000D01*
X18834868Y3112061D01*
X18712217Y3295687D01*
X18502934Y3469565D01*
X22000000Y3469565D01*
X22000000Y3065000D01*
X22100000Y2965000D01*
X22900000Y2965000D01*
X22900000Y3690000D01*
X23900000Y3690000D01*
X23900000Y2965000D01*
X24700000Y2965000D01*
X24800000Y3065000D01*
X24800000Y3469565D01*
X24739104Y3616582D01*
X24626582Y3729104D01*
X24479565Y3790000D01*
X24000000Y3790000D01*
X23900000Y3690000D01*
X22900000Y3690000D01*
X22800000Y3790000D01*
X22320435Y3790000D01*
X22173418Y3729104D01*
X22060896Y3616582D01*
X22000000Y3469565D01*
X18502934Y3469565D01*
X18352067Y3594908D01*
X18180000Y3571411D01*
X17380000Y3571411D01*
X17207933Y3594908D01*
X16847783Y3295687D01*
X16725132Y3112061D01*
X14685000Y3112061D01*
X14685000Y3580000D01*
X14815000Y3580000D01*
X14815000Y4380000D01*
X15665000Y4380000D01*
X15665000Y3580000D01*
X16390000Y3580000D01*
X16490000Y3680000D01*
X16490000Y4159565D01*
X16429104Y4306582D01*
X16316582Y4419104D01*
X16169565Y4480000D01*
X15765000Y4480000D01*
X15665000Y4380000D01*
X14815000Y4380000D01*
X14715000Y4480000D01*
X14310435Y4480000D01*
X14163418Y4419104D01*
X14070000Y4325686D01*
X14070000Y5838933D01*
X14101616Y5791616D01*
X14233928Y5703209D01*
X14390000Y5672164D01*
X15633139Y5672164D01*
X16638726Y4666576D01*
X16649625Y4611783D01*
X16914848Y4214848D01*
X17311783Y3949625D01*
X17661812Y3880000D01*
X17898188Y3880000D01*
X18248217Y3949625D01*
X18645152Y4214848D01*
X18910375Y4611783D01*
X18991574Y5020000D01*
X21660000Y5020000D01*
X21660000Y4540435D01*
X21720896Y4393418D01*
X21833418Y4280896D01*
X21980435Y4220000D01*
X22360000Y4220000D01*
X22460000Y4320000D01*
X22460000Y5120000D01*
X23260000Y5120000D01*
X23260000Y4320000D01*
X23360000Y4220000D01*
X23739565Y4220000D01*
X23886582Y4280896D01*
X23999104Y4393418D01*
X24060000Y4540435D01*
X24060000Y5020000D01*
X23960000Y5120000D01*
X23260000Y5120000D01*
X22460000Y5120000D01*
X21760000Y5120000D01*
X21660000Y5020000D01*
X18991574Y5020000D01*
X19003509Y5080000D01*
X18910375Y5548217D01*
X18756880Y5777939D01*
X19265132Y5777939D01*
X19387783Y5594313D01*
X19747933Y5295092D01*
X19920000Y5318589D01*
X19920000Y5950000D01*
X20720000Y5950000D01*
X20720000Y5318589D01*
X20892067Y5295092D01*
X21252217Y5594313D01*
X21374868Y5777939D01*
X21344695Y5950000D01*
X20720000Y5950000D01*
X19920000Y5950000D01*
X19295305Y5950000D01*
X19265132Y5777939D01*
X18756880Y5777939D01*
X18645152Y5945152D01*
X18248217Y6210375D01*
X17898188Y6280000D01*
X17661812Y6280000D01*
X17311783Y6210375D01*
X17199409Y6135289D01*
X16635133Y6699565D01*
X21660000Y6699565D01*
X21660000Y6220000D01*
X21760000Y6120000D01*
X22460000Y6120000D01*
X22460000Y6920000D01*
X23260000Y6920000D01*
X23260000Y6120000D01*
X23960000Y6120000D01*
X24060000Y6220000D01*
X24060000Y6699565D01*
X23999104Y6846582D01*
X23886582Y6959104D01*
X23739565Y7020000D01*
X23360000Y7020000D01*
X23260000Y6920000D01*
X22460000Y6920000D01*
X22360000Y7020000D01*
X21980435Y7020000D01*
X21833418Y6959104D01*
X21720896Y6846582D01*
X21660000Y6699565D01*
X16635133Y6699565D01*
X16497836Y6836861D01*
X16497836Y7551028D01*
X16511555Y7619999D01*
X16497836Y7688970D01*
X16497836Y8080000D01*
X16466791Y8236072D01*
X16378384Y8368384D01*
X16246072Y8456791D01*
X16090000Y8487836D01*
X15957500Y8487836D01*
X15957500Y9160000D01*
X16522164Y9160000D01*
X16522164Y7160000D01*
X16553209Y7003928D01*
X16641616Y6871616D01*
X16773928Y6783209D01*
X16930000Y6752164D01*
X18630000Y6752164D01*
X18786072Y6783209D01*
X18918384Y6871616D01*
X18952089Y6922061D01*
X19265132Y6922061D01*
X19295305Y6750000D01*
X19920000Y6750000D01*
X19920000Y7381411D01*
X20720000Y7381411D01*
X20720000Y6750000D01*
X21344695Y6750000D01*
X21374868Y6922061D01*
X21252217Y7105687D01*
X20892067Y7404908D01*
X20720000Y7381411D01*
X19920000Y7381411D01*
X19747933Y7404908D01*
X19387783Y7105687D01*
X19265132Y6922061D01*
X18952089Y6922061D01*
X19006791Y7003928D01*
X19037836Y7160000D01*
X19037836Y8172500D01*
X19356190Y8172500D01*
X19454848Y8024848D01*
X19851783Y7759625D01*
X20201812Y7690000D01*
X20438188Y7690000D01*
X20788217Y7759625D01*
X21185152Y8024848D01*
X21283810Y8172500D01*
X22059340Y8172500D01*
X22130000Y8158445D01*
X22200660Y8172500D01*
X22200665Y8172500D01*
X22400070Y8212164D01*
X23660000Y8212164D01*
X23816072Y8243209D01*
X23948384Y8331616D01*
X24036791Y8463928D01*
X24067836Y8620000D01*
X24067836Y10430000D01*
X24142164Y10430000D01*
X24142164Y8430000D01*
X24173209Y8273928D01*
X24261616Y8141616D01*
X24393928Y8053209D01*
X24550000Y8022164D01*
X24682500Y8022164D01*
X24682500Y7690660D01*
X24668445Y7620000D01*
X24682500Y7549340D01*
X24682500Y7549336D01*
X24724130Y7340047D01*
X24882712Y7102713D01*
X24942619Y7062684D01*
X26112683Y5892619D01*
X26152712Y5832712D01*
X26212618Y5792684D01*
X26390044Y5674131D01*
X26390045Y5674131D01*
X26390046Y5674130D01*
X26599335Y5632500D01*
X26599339Y5632500D01*
X26669999Y5618445D01*
X26740659Y5632500D01*
X26976190Y5632500D01*
X27074848Y5484848D01*
X27471783Y5219625D01*
X27821812Y5150000D01*
X28058188Y5150000D01*
X28408217Y5219625D01*
X28805152Y5484848D01*
X28903810Y5632500D01*
X29320980Y5632500D01*
X29341616Y5601616D01*
X29473928Y5513209D01*
X29630000Y5482164D01*
X31330000Y5482164D01*
X31486072Y5513209D01*
X31618384Y5601616D01*
X31667501Y5675125D01*
X31667501Y4432836D01*
X30655000Y4432836D01*
X30498928Y4401791D01*
X30366616Y4313384D01*
X30278209Y4181072D01*
X30247164Y4025000D01*
X30247164Y3892500D01*
X28105660Y3892500D01*
X28035000Y3906555D01*
X27964340Y3892500D01*
X27964335Y3892500D01*
X27755046Y3850870D01*
X27755044Y3850869D01*
X27755045Y3850869D01*
X27675675Y3797836D01*
X26400000Y3797836D01*
X26243928Y3766791D01*
X26111616Y3678384D01*
X26023209Y3546072D01*
X25992164Y3390000D01*
X25992164Y1690000D01*
X26023209Y1533928D01*
X26111616Y1401616D01*
X26243928Y1313209D01*
X26400000Y1282164D01*
X28400000Y1282164D01*
X28556072Y1313209D01*
X28688384Y1401616D01*
X28776791Y1533928D01*
X28807836Y1690000D01*
X28807836Y2457500D01*
X30247164Y2457500D01*
X30247164Y2325000D01*
X30278209Y2168928D01*
X30366616Y2036616D01*
X30498928Y1948209D01*
X30655000Y1917164D01*
X32655000Y1917164D01*
X32811072Y1948209D01*
X32943384Y2036616D01*
X33031791Y2168928D01*
X33062836Y2325000D01*
X33062836Y3634930D01*
X33102500Y3834335D01*
X33102500Y3834340D01*
X33116555Y3905000D01*
X33102500Y3975660D01*
X33102500Y8184340D01*
X33116555Y8255000D01*
X33110322Y8286339D01*
X34465425Y8286339D01*
X34583393Y8109722D01*
X34956332Y7795386D01*
X35135000Y7814428D01*
X35135000Y8465000D01*
X34491414Y8465000D01*
X34465425Y8286339D01*
X33110322Y8286339D01*
X33102500Y8325660D01*
X33102500Y8325665D01*
X33060870Y8534954D01*
X33041642Y8563730D01*
X32942317Y8712382D01*
X32942312Y8712387D01*
X32902287Y8772288D01*
X32842386Y8812313D01*
X32307318Y9347380D01*
X32267288Y9407288D01*
X32138023Y9493661D01*
X34465425Y9493661D01*
X34491414Y9315000D01*
X35135000Y9315000D01*
X35135000Y9965572D01*
X34956332Y9984614D01*
X34583393Y9670278D01*
X34465425Y9493661D01*
X32138023Y9493661D01*
X32029954Y9565870D01*
X31820665Y9607500D01*
X31820660Y9607500D01*
X31750000Y9621555D01*
X31679340Y9607500D01*
X31622316Y9607500D01*
X31706791Y9733928D01*
X31737836Y9890000D01*
X31737836Y11890000D01*
X31706791Y12046072D01*
X31618384Y12178384D01*
X31486072Y12266791D01*
X31330000Y12297836D01*
X31197500Y12297836D01*
X31197500Y12712164D01*
X32020000Y12712164D01*
X32176072Y12743209D01*
X32308384Y12831616D01*
X32396791Y12963928D01*
X32427836Y13120000D01*
X32427836Y14820000D01*
X32396791Y14976072D01*
X32308384Y15108384D01*
X32176072Y15196791D01*
X32020000Y15227836D01*
X30020000Y15227836D01*
X29863928Y15196791D01*
X29731616Y15108384D01*
X29643209Y14976072D01*
X29612164Y14820000D01*
X29612164Y13120000D01*
X29643209Y12963928D01*
X29731616Y12831616D01*
X29762501Y12810980D01*
X29762501Y12297836D01*
X29630000Y12297836D01*
X29473928Y12266791D01*
X29341616Y12178384D01*
X29320980Y12147500D01*
X28903810Y12147500D01*
X28805152Y12295152D01*
X28408217Y12560375D01*
X28058188Y12630000D01*
X27821812Y12630000D01*
X27471783Y12560375D01*
X27074848Y12295152D01*
X26809625Y11898217D01*
X26716491Y11430000D01*
X26809625Y10961783D01*
X27074848Y10564848D01*
X27471783Y10299625D01*
X27821812Y10230000D01*
X28058188Y10230000D01*
X28408217Y10299625D01*
X28805152Y10564848D01*
X28903810Y10712500D01*
X29222164Y10712500D01*
X29222164Y9890000D01*
X29253209Y9733928D01*
X29337684Y9607500D01*
X28903810Y9607500D01*
X28805152Y9755152D01*
X28408217Y10020375D01*
X28058188Y10090000D01*
X27821812Y10090000D01*
X27471783Y10020375D01*
X27074848Y9755152D01*
X26809625Y9358217D01*
X26716491Y8890000D01*
X26809625Y8421783D01*
X27074848Y8024848D01*
X27471783Y7759625D01*
X27821812Y7690000D01*
X28058188Y7690000D01*
X28408217Y7759625D01*
X28805152Y8024848D01*
X28903810Y8172500D01*
X29337684Y8172500D01*
X29253209Y8046072D01*
X29222164Y7890000D01*
X29222164Y7067500D01*
X28903810Y7067500D01*
X28805152Y7215152D01*
X28408217Y7480375D01*
X28058188Y7550000D01*
X27821812Y7550000D01*
X27471783Y7480375D01*
X27074848Y7215152D01*
X26976190Y7067500D01*
X26967198Y7067500D01*
X26117500Y7917197D01*
X26117500Y8022164D01*
X26250000Y8022164D01*
X26406072Y8053209D01*
X26538384Y8141616D01*
X26626791Y8273928D01*
X26657836Y8430000D01*
X26657836Y10430000D01*
X26626791Y10586072D01*
X26538384Y10718384D01*
X26406072Y10806791D01*
X26250000Y10837836D01*
X24550000Y10837836D01*
X24393928Y10806791D01*
X24261616Y10718384D01*
X24173209Y10586072D01*
X24142164Y10430000D01*
X24067836Y10430000D01*
X24067836Y10620000D01*
X24036791Y10776072D01*
X23948384Y10908384D01*
X23816072Y10996791D01*
X23660000Y11027836D01*
X22060000Y11027836D01*
X21903928Y10996791D01*
X21771616Y10908384D01*
X21683209Y10776072D01*
X21652164Y10620000D01*
X21652164Y9607500D01*
X21283810Y9607500D01*
X21185152Y9755152D01*
X20788217Y10020375D01*
X20438188Y10090000D01*
X20201812Y10090000D01*
X19851783Y10020375D01*
X19454848Y9755152D01*
X19356190Y9607500D01*
X18580660Y9607500D01*
X18510000Y9621555D01*
X18439340Y9607500D01*
X18439335Y9607500D01*
X18239930Y9567836D01*
X16930000Y9567836D01*
X16773928Y9536791D01*
X16641616Y9448384D01*
X16553209Y9316072D01*
X16522164Y9160000D01*
X15957500Y9160000D01*
X15957500Y11442500D01*
X16522164Y11442500D01*
X16522164Y11160000D01*
X16553209Y11003928D01*
X16641616Y10871616D01*
X16773928Y10783209D01*
X16930000Y10752164D01*
X18630000Y10752164D01*
X18786072Y10783209D01*
X18918384Y10871616D01*
X19006791Y11003928D01*
X19037836Y11160000D01*
X19037836Y11430000D01*
X19096491Y11430000D01*
X19189625Y10961783D01*
X19454848Y10564848D01*
X19851783Y10299625D01*
X20201812Y10230000D01*
X20438188Y10230000D01*
X20788217Y10299625D01*
X21185152Y10564848D01*
X21450375Y10961783D01*
X21543509Y11430000D01*
X21450375Y11898217D01*
X21185152Y12295152D01*
X21037500Y12393810D01*
X21037500Y12762164D01*
X21120000Y12762164D01*
X21276072Y12793209D01*
X21408384Y12881616D01*
X21496791Y13013928D01*
X21527836Y13170000D01*
X21527836Y13252500D01*
X24142164Y13252500D01*
X24142164Y12430000D01*
X24173209Y12273928D01*
X24261616Y12141616D01*
X24393928Y12053209D01*
X24550000Y12022164D01*
X26250000Y12022164D01*
X26406072Y12053209D01*
X26538384Y12141616D01*
X26626791Y12273928D01*
X26657836Y12430000D01*
X26657836Y14430000D01*
X26626791Y14586072D01*
X26538384Y14718384D01*
X26406072Y14806791D01*
X26250000Y14837836D01*
X24550000Y14837836D01*
X24393928Y14806791D01*
X24261616Y14718384D01*
X24240980Y14687500D01*
X21527836Y14687500D01*
X21527836Y14770000D01*
X21496791Y14926072D01*
X21408384Y15058384D01*
X21276072Y15146791D01*
X21120000Y15177836D01*
X19520000Y15177836D01*
X19363928Y15146791D01*
X19231616Y15058384D01*
X19143209Y14926072D01*
X19112164Y14770000D01*
X19112164Y13170000D01*
X19143209Y13013928D01*
X19231616Y12881616D01*
X19363928Y12793209D01*
X19520000Y12762164D01*
X19602500Y12762164D01*
X19602501Y12393810D01*
X19454848Y12295152D01*
X19189625Y11898217D01*
X19096491Y11430000D01*
X19037836Y11430000D01*
X19037836Y13160000D01*
X19006791Y13316072D01*
X18918384Y13448384D01*
X18786072Y13536791D01*
X18630000Y13567836D01*
X18497500Y13567836D01*
X18497500Y14276190D01*
X18645152Y14374848D01*
X18910375Y14771783D01*
X19003509Y15240000D01*
X18910375Y15708217D01*
X18645152Y16105152D01*
X18248217Y16370375D01*
X17898188Y16440000D01*
X17661812Y16440000D01*
X17311783Y16370375D01*
X16914848Y16105152D01*
X16649625Y15708217D01*
X16556491Y15240000D01*
X16649625Y14771783D01*
X16914848Y14374848D01*
X17062500Y14276190D01*
X17062501Y13567836D01*
X16930000Y13567836D01*
X16773928Y13536791D01*
X16641616Y13448384D01*
X16553209Y13316072D01*
X16522164Y13160000D01*
X16522164Y12877500D01*
X16497836Y12877500D01*
X16497836Y14240000D01*
X16466791Y14396072D01*
X16378384Y14528384D01*
X16246072Y14616791D01*
X16090000Y14647836D01*
X14390000Y14647836D01*
X14233928Y14616791D01*
X14101616Y14528384D01*
X14070000Y14481067D01*
X14070000Y15998933D01*
X14101616Y15951616D01*
X14233928Y15863209D01*
X14390000Y15832164D01*
X16090000Y15832164D01*
X16246072Y15863209D01*
X16378384Y15951616D01*
X16466791Y16083928D01*
X16497836Y16240000D01*
X16497836Y17062500D01*
X16816190Y17062500D01*
X16914848Y16914848D01*
X17311783Y16649625D01*
X17661812Y16580000D01*
X17898188Y16580000D01*
X18248217Y16649625D01*
X18645152Y16914848D01*
X18743810Y17062500D01*
X27222501Y17062500D01*
X27222500Y14933810D01*
X27074848Y14835152D01*
X26809625Y14438217D01*
X26716491Y13970000D01*
X26809625Y13501783D01*
X27074848Y13104848D01*
X27471783Y12839625D01*
X27821812Y12770000D01*
X28058188Y12770000D01*
X28408217Y12839625D01*
X28805152Y13104848D01*
X29070375Y13501783D01*
X29163509Y13970000D01*
X29070375Y14438217D01*
X28805152Y14835152D01*
X28657500Y14933810D01*
X28657500Y17062500D01*
X34627803Y17062500D01*
X36747501Y14942801D01*
X36747501Y12494875D01*
X36698384Y12568384D01*
X36566072Y12656791D01*
X36410000Y12687836D01*
X36277500Y12687836D01*
X36277500Y12810980D01*
X36308384Y12831616D01*
X36396791Y12963928D01*
X36427836Y13120000D01*
X36427836Y14820000D01*
X36396791Y14976072D01*
X36308384Y15108384D01*
X36176072Y15196791D01*
X36020000Y15227836D01*
X34020000Y15227836D01*
X33863928Y15196791D01*
X33731616Y15108384D01*
X33643209Y14976072D01*
X33612164Y14820000D01*
X33612164Y13120000D01*
X33643209Y12963928D01*
X33731616Y12831616D01*
X33863928Y12743209D01*
X34020000Y12712164D01*
X34842501Y12712164D01*
X34842501Y12687836D01*
X34710000Y12687836D01*
X34553928Y12656791D01*
X34421616Y12568384D01*
X34333209Y12436072D01*
X34302164Y12280000D01*
X34302164Y10580000D01*
X34333209Y10423928D01*
X34421616Y10291616D01*
X34553928Y10203209D01*
X34710000Y10172164D01*
X36410000Y10172164D01*
X36566072Y10203209D01*
X36698384Y10291616D01*
X36747500Y10365125D01*
X36747500Y9425002D01*
X36644587Y9425002D01*
X36654575Y9493661D01*
X36536607Y9670278D01*
X36163668Y9984614D01*
X35985000Y9965572D01*
X35985000Y9315000D01*
X36115000Y9315000D01*
X36115000Y8465000D01*
X35985000Y8465000D01*
X35985000Y7814428D01*
X36163668Y7795386D01*
X36536607Y8109722D01*
X36654575Y8286339D01*
X36644587Y8354998D01*
X36747500Y8354998D01*
X36747500Y7282198D01*
X36563459Y7098156D01*
X36461199Y7251199D01*
X36047725Y7527473D01*
X35683109Y7600000D01*
X35436891Y7600000D01*
X35072275Y7527473D01*
X34658801Y7251199D01*
X34382527Y6837725D01*
X34285512Y6350000D01*
X34382527Y5862275D01*
X34658801Y5448801D01*
X34937501Y5262580D01*
X34937500Y4432836D01*
X34655000Y4432836D01*
X34498928Y4401791D01*
X34366616Y4313384D01*
X34278209Y4181072D01*
X34247164Y4025000D01*
X34247164Y2325000D01*
X34278209Y2168928D01*
X34366616Y2036616D01*
X34498928Y1948209D01*
X34655000Y1917164D01*
X36655000Y1917164D01*
X36811072Y1948209D01*
X36943384Y2036616D01*
X37031791Y2168928D01*
X37062836Y2325000D01*
X37062836Y4025000D01*
X37031791Y4181072D01*
X36943384Y4313384D01*
X36811072Y4401791D01*
X36655000Y4432836D01*
X36372500Y4432836D01*
X36372500Y5389534D01*
X36461199Y5448801D01*
X36583943Y5632500D01*
X36759340Y5632500D01*
X36830000Y5618445D01*
X36900660Y5632500D01*
X36900665Y5632500D01*
X37109954Y5674130D01*
X37347288Y5832712D01*
X37387318Y5892620D01*
X37922386Y6427687D01*
X37982287Y6467712D01*
X38022312Y6527613D01*
X38022317Y6527618D01*
X38121642Y6676270D01*
X38140870Y6705046D01*
X38182500Y6914335D01*
X38182500Y6914340D01*
X38196555Y6985000D01*
X38182500Y7055660D01*
X38182500Y15169341D01*
X38196555Y15240001D01*
X38182500Y15310661D01*
X38182500Y15310665D01*
X38140870Y15519954D01*
X37982288Y15757288D01*
X37922382Y15797316D01*
X35482318Y18237379D01*
X35442288Y18297288D01*
X35204954Y18455870D01*
X34995665Y18497500D01*
X34995660Y18497500D01*
X34925000Y18511555D01*
X34854340Y18497500D01*
X28010665Y18497500D01*
X27940000Y18511556D01*
X27869336Y18497500D01*
X18743810Y18497500D01*
X18645152Y18645152D01*
X18248217Y18910375D01*
X17898188Y18980000D01*
X17661812Y18980000D01*
X17311783Y18910375D01*
X16914848Y18645152D01*
X16816190Y18497500D01*
X16399020Y18497500D01*
X16378384Y18528384D01*
X16246072Y18616791D01*
X16090000Y18647836D01*
X14390000Y18647836D01*
X14233928Y18616791D01*
X14101616Y18528384D01*
X14070000Y18481067D01*
X14070000Y19845000D01*
X36633250Y19845000D01*
X38895000Y17583248D01*
G04 #@! TD*
M02*
