M48
;DRILL file {KiCad (5.0.0-3-g5ebb6b6)} date 2018 September 04, Tuesday 20:52:12
;FORMAT={-:-/ absolute / metric / decimal}
FMAT,2
METRIC,TZ
T1C0.800
T2C1.000
T3C1.199
%
G90
G05
M71
T1
X20.32Y13.97
X20.32Y11.43
X20.32Y8.89
X20.32Y6.35
X27.94Y13.97
X27.94Y11.43
X27.94Y8.89
X27.94Y6.35
X10.16Y17.78
X10.16Y15.24
X17.78Y17.78
X17.78Y15.24
X2.54Y10.16
X12.7Y10.16
X10.16Y5.08
X10.16Y2.54
X17.78Y5.08
X17.78Y2.54
T2
X35.56Y11.43
X35.56Y8.89
X35.56Y6.35
T3
X5.08Y3.81
X5.08Y16.51
T0
M30
