M48
;DRILL file {KiCad (2018-01-05 revision b98cc0b)-master} date 2018 January 10, Wednesday 21:05:21
;FORMAT={-:-/ absolute / metric / decimal}
FMAT,2
METRIC,TZ
T1C0.800
T2C1.000
T3C3.200
%
G90
G05
M71
T1
X1.905Y13.97
X16.51Y17.78
X16.51Y15.875
X33.02Y27.94
X33.02Y24.13
X43.18Y13.97
X50.8Y27.94
X50.8Y24.13
X53.34Y15.875
X67.945Y27.94
X67.945Y24.13
X67.945Y17.78
T2
X38.1Y20.32
X40.64Y20.32
X43.18Y20.32
X45.72Y20.32
X48.26Y20.32
X50.8Y20.32
T3
X3.Y3.
X87.Y3.
X87.Y27.
X49.53Y8.89
X39.37Y8.89
X3.Y27.
T0
M30
